<svg xmlns="http://www.w3.org/2000/svg" width="128" height="128" viewBox="0 0 128 128">
  <path d="M125.071,30.243,97.757,2.929A9.936,9.936,0,0,0,90.687,0H38A10.011,10.011,0,0,0,28,10V28H4a4,4,0,0,0-4,4V60a4,4,0,0,0,4,4H28v54a10.011,10.011,0,0,0,10,10h80a10.011,10.011,0,0,0,10-10V37.313A9.933,9.933,0,0,0,125.071,30.243ZM96,6.829,121.172,32H102a6.006,6.006,0,0,1-6-6ZM35.623,43.021a6.718,6.718,0,0,0,2.523.921l2.12.429a9.423,9.423,0,0,1,4.607,1.977,4.787,4.787,0,0,1,1.464,3.706v.014a5.747,5.747,0,0,1-.965,3.332A6.184,6.184,0,0,1,42.6,55.578a11.085,11.085,0,0,1-4.33.768,11.152,11.152,0,0,1-4.138-.7,6.444,6.444,0,0,1-2.786-2.007,5.545,5.545,0,0,1-1.128-3.154l-.014-.222h3.95l.028.152a2.46,2.46,0,0,0,.7,1.339,3.771,3.771,0,0,0,1.464.871,6.133,6.133,0,0,0,2.037.313,5.7,5.7,0,0,0,2-.313,2.874,2.874,0,0,0,1.3-.887,2.084,2.084,0,0,0,.457-1.337v-.014a1.856,1.856,0,0,0-.8-1.588,7.183,7.183,0,0,0-2.653-.948l-2.107-.429a8.876,8.876,0,0,1-4.457-2,4.836,4.836,0,0,1-1.5-3.679v-.014a5.355,5.355,0,0,1,1-3.188,6.479,6.479,0,0,1,2.7-2.12,9.614,9.614,0,0,1,3.936-.762,10.073,10.073,0,0,1,4,.726,6.164,6.164,0,0,1,2.627,2.04,5.691,5.691,0,0,1,1.04,3.069l.014.249h-3.95l-.028-.166a2.413,2.413,0,0,0-.591-1.345,3.213,3.213,0,0,0-1.28-.859,5.682,5.682,0,0,0-3.673,0,2.628,2.628,0,0,0-1.186.854,2.034,2.034,0,0,0-.408,1.253v.014A1.792,1.792,0,0,0,35.623,43.021Zm-8.668,6.035a7.644,7.644,0,0,1-1.353,3.77,7.965,7.965,0,0,1-3.054,2.586,9.7,9.7,0,0,1-4.325.934A9.9,9.9,0,0,1,13.156,55.1a8.362,8.362,0,0,1-3.3-3.562,12.216,12.216,0,0,1-1.164-5.544v-.014a12.151,12.151,0,0,1,1.164-5.535,8.307,8.307,0,0,1,3.3-3.549,9.924,9.924,0,0,1,5.067-1.241,9.6,9.6,0,0,1,4.325.942A7.967,7.967,0,0,1,25.6,39.188a7.72,7.72,0,0,1,1.344,3.77l.014.138H22.866l-.055-.235a4.92,4.92,0,0,0-.845-1.927,4.2,4.2,0,0,0-1.553-1.275,4.96,4.96,0,0,0-2.19-.457,4.713,4.713,0,0,0-2.785.826,5.277,5.277,0,0,0-1.824,2.334,9.141,9.141,0,0,0-.644,3.6v.014a9.35,9.35,0,0,0,.644,3.64,5.283,5.283,0,0,0,1.829,2.356,4.747,4.747,0,0,0,2.78.823,4.991,4.991,0,0,0,2.149-.443,4.254,4.254,0,0,0,1.58-1.284,5.157,5.157,0,0,0,.9-2.029l.027-.138h4.089ZM124,118a6.006,6.006,0,0,1-6,6H38a6.006,6.006,0,0,1-6-6V64H72a4,4,0,0,0,4-4V32a4,4,0,0,0-4-4H32V10a6.006,6.006,0,0,1,6-6H90.687A6.04,6.04,0,0,1,92,4.149V26a10.011,10.011,0,0,0,10,10h21.851A6.04,6.04,0,0,1,124,37.313ZM48.823,36h4.629l4.574,15.717h.083L62.669,36h4.643L60.618,56H55.5Z" fill="#7373e5"/>
</svg>
